<?xml version="1.0" encoding="UTF-8"?>
<svg width="51px" height="51px" viewBox="0 0 51 51" version="1.1" xmlns="http://www.w3.org/2000/svg" xmlns:xlink="http://www.w3.org/1999/xlink">
    <title>980E4C36-8078-490D-A538-08081FB0892B1</title>
    <defs>
        <circle id="path-1" cx="25.5" cy="25.5" r="25.5"></circle>
        <filter x="-129.4%" y="-76.5%" width="358.8%" height="358.8%" filterUnits="objectBoundingBox" id="filter-2">
            <feOffset dx="0" dy="27" in="SourceAlpha" result="shadowOffsetOuter1"></feOffset>
            <feGaussianBlur stdDeviation="17.5" in="shadowOffsetOuter1" result="shadowBlurOuter1"></feGaussianBlur>
            <feColorMatrix values="0 0 0 0 0.094522104   0 0 0 0 0.351579383   0 0 0 0 0.69921875  0 0 0 0.0913973722 0" type="matrix" in="shadowBlurOuter1"></feColorMatrix>
        </filter>
    </defs>
    <g id="תפריט" stroke="none" stroke-width="1" fill="none" fill-rule="evenodd">
        <g id="כל-הפעולות_קטגוריות" transform="translate(-343.000000, -217.000000)">
            <g id="Group" transform="translate(279.000000, 217.000000)">
                <g id="Buttons/Secondary/Actions" transform="translate(64.000000, 0.000000)">
                    <g id="Oval">
                        <use fill="black" fill-opacity="1" filter="url(#filter-2)" xlink:href="#path-1"></use>
                        <use fill="#FFFFFF" fill-rule="evenodd" xlink:href="#path-1"></use>
                    </g>
                    <g id="Icons/Menu/01" transform="translate(14.500000, 15.500000)">
                        <rect id="Frame" x="0" y="0" width="22" height="20"></rect>
                        <path d="M16.9072652,2.45392479 C17.1997716,2.45392479 17.4368948,2.69104805 17.4368948,2.98355442 L17.4367526,4.19925812 L20.395047,4.19939846 C20.9531241,4.19939846 21.1554964,4.25750588 21.359521,4.36661946 C21.5635457,4.47573303 21.7236654,4.63585278 21.832779,4.83987743 C21.9418926,5.04390208 22,5.24627433 22,5.80435144 L22,18.395047 C22,18.9531241 21.9418926,19.1554964 21.832779,19.359521 C21.7236654,19.5635457 21.5635457,19.7236654 21.359521,19.832779 C21.1740441,19.9319732 20.9899327,19.9890135 20.5386992,19.9985647 L5.27133522,20 C4.7132581,20 4.51088586,19.9418926 4.3068612,19.832779 C4.10283655,19.7236654 3.94271681,19.5635457 3.83360323,19.359521 C3.72448966,19.1554964 3.66638224,18.9531241 3.66638224,18.395047 L3.66638224,5.80435144 C3.66638224,5.24627433 3.72448966,5.04390208 3.83360323,4.83987743 C3.94271681,4.63585278 4.10283655,4.47573303 4.3068612,4.36661946 C4.51088586,4.25750588 4.7132581,4.19939846 5.27133522,4.19939846 L8.2293452,4.19925812 L8.22948742,2.98355442 C8.22948742,2.69104805 8.46661068,2.45392479 8.75911705,2.45392479 C9.05162341,2.45392479 9.28874668,2.69104805 9.28874668,2.98355442 L9.28860446,4.19925812 L16.3774934,4.19925812 L16.3776356,2.98355442 C16.3776356,2.69104805 16.6147588,2.45392479 16.9072652,2.45392479 Z M16.3774934,5.25851738 L9.28860446,5.25851738 L9.28874668,6.69366275 C9.28874668,6.98616912 9.05162341,7.22329238 8.75911705,7.22329238 C8.46661068,7.22329238 8.22948742,6.98616912 8.22948742,6.69366275 L8.2293452,5.25851738 L5.16539057,5.25908791 L5.0084942,5.26272896 C4.88350029,5.26835689 4.84469475,5.28021156 4.80640666,5.30068825 C4.79345389,5.30761547 4.78517423,5.31388661 4.7780149,5.32305446 L4.76767203,5.33942288 C4.74378255,5.38409232 4.73162861,5.42946607 4.72740658,5.61158637 L4.72740658,18.5878121 C4.73102546,18.7439152 4.74047187,18.7995515 4.75814109,18.8403918 L4.76767203,18.8599756 C4.77806286,18.8794047 4.7869775,18.8883194 4.80640666,18.8987102 C4.85745745,18.9260125 4.90942814,18.9379867 5.16539057,18.9403106 L20.5009917,18.9403106 L20.657888,18.9366695 C20.782882,18.9310416 20.8216875,18.9191869 20.8599756,18.8987102 C20.8794047,18.8883194 20.8883194,18.8794047 20.8987102,18.8599756 C20.9255859,18.8097225 20.9376088,18.758578 20.9401945,18.5128413 L20.9407407,5.80435144 C20.9407407,5.45545141 20.9294253,5.39685502 20.8987102,5.33942288 C20.8883194,5.31999373 20.8794047,5.31107908 20.8599756,5.30068825 L20.818342,5.28299685 C20.77019,5.26800203 20.6929635,5.26083081 20.5009917,5.25908791 L17.4367526,5.25851738 L17.4368948,6.69366275 C17.4368948,6.98616912 17.1997716,7.22329238 16.9072652,7.22329238 C16.6147588,7.22329238 16.3776356,6.98616912 16.3776356,6.69366275 L16.3774934,5.25851738 Z M18.292,0.376885414 C18.962,0.376885414 19.506,0.921885414 19.506,1.59188541 L19.506,2.23788541 C19.506,2.53088541 19.269,2.76788541 18.976,2.76788541 C18.683,2.76788541 18.447,2.53088541 18.447,2.23788541 L18.447,1.59188541 C18.447,1.50588541 18.377,1.43688541 18.292,1.43688541 L1.214,1.43688541 C1.129,1.43688541 1.059,1.50588541 1.059,1.59188541 L1.059,15.8038854 C1.059,15.8888854 1.129,15.9588854 1.214,15.9588854 L1.699,15.9588854 C1.991,15.9588854 2.229,16.1958854 2.229,16.4888854 C2.229,16.7818854 1.991,17.0178854 1.699,17.0178854 L1.214,17.0178854 C0.544,17.0178854 0,16.4738854 0,15.8038854 L0,1.59188541 C0,0.921885414 0.544,0.376885414 1.214,0.376885414 L18.292,0.376885414 Z M12.7520823,9.58464791 C13.0445887,9.58464791 13.281712,9.82177118 13.281712,10.1142775 L13.2808972,12.2238331 L15.3920823,12.2246479 C15.6845887,12.2246479 15.921712,12.4617712 15.921712,12.7542775 C15.921712,13.0467839 15.6845887,13.2839072 15.3920823,13.2839072 L13.2808972,13.2830924 L13.281712,15.3942775 C13.281712,15.6867839 13.0445887,15.9239072 12.7520823,15.9239072 C12.459576,15.9239072 12.2224527,15.6867839 12.2224527,15.3942775 L12.2216379,13.2830924 L10.1120823,13.2839072 C9.81957597,13.2839072 9.58245271,13.0467839 9.58245271,12.7542775 C9.58245271,12.4617712 9.81957597,12.2246479 10.1120823,12.2246479 L12.2216379,12.2238331 L12.2224527,10.1142775 C12.2224527,9.82177118 12.459576,9.58464791 12.7520823,9.58464791 Z" id="Combined-Shape" fill="#6E7695" fill-rule="nonzero"></path>
                    </g>
                </g>
            </g>
        </g>
    </g>
</svg>