<?xml version="1.0" encoding="UTF-8"?>
<svg width="51px" height="51px" viewBox="0 0 51 51" version="1.1" xmlns="http://www.w3.org/2000/svg" xmlns:xlink="http://www.w3.org/1999/xlink">
    <title>859931CE-44D3-432E-8BEA-7F272388662F1</title>
    <defs>
        <circle id="path-1" cx="25.5" cy="25.5" r="25.5"></circle>
        <filter x="-129.4%" y="-76.5%" width="358.8%" height="358.8%" filterUnits="objectBoundingBox" id="filter-2">
            <feOffset dx="0" dy="27" in="SourceAlpha" result="shadowOffsetOuter1"></feOffset>
            <feGaussianBlur stdDeviation="17.5" in="shadowOffsetOuter1" result="shadowBlurOuter1"></feGaussianBlur>
            <feColorMatrix values="0 0 0 0 0.094522104   0 0 0 0 0.351579383   0 0 0 0 0.69921875  0 0 0 0.0913973722 0" type="matrix" in="shadowBlurOuter1"></feColorMatrix>
        </filter>
    </defs>
    <g id="תפריט" stroke="none" stroke-width="1" fill="none" fill-rule="evenodd">
        <g id="כל-הפעולות_קטגוריות" transform="translate(-343.000000, -475.000000)">
            <g id="Group-8" transform="translate(20.000000, 298.000000)">
                <g id="Group-22-Copy" transform="translate(235.000000, 177.000000)">
                    <g id="Buttons/Secondary/Actions-Copy" transform="translate(88.000000, 0.000000)">
                        <g id="Oval">
                            <use fill="black" fill-opacity="1" filter="url(#filter-2)" xlink:href="#path-1"></use>
                            <use fill="#FFFFFF" fill-rule="evenodd" xlink:href="#path-1"></use>
                        </g>
                        <g id="Icons/Menu/01" transform="translate(14.499781, 15.500000)">
                            <path d="M16.3154934,0.454199934 C16.4921228,0.454199934 16.6651374,0.489268684 16.8252319,0.555532393 C16.8337973,0.559869367 16.8422363,0.563109813 16.8505681,0.566556759 C17.0009599,0.632188778 17.1396317,0.726180302 17.258232,0.844816463 L21.6097655,5.19634997 C21.7283454,5.314894 21.8223024,5.45346872 21.8883294,5.60412144 C21.8912659,5.61176699 21.8942738,5.61955491 21.8971005,5.6274292 C21.965005,5.78770574 22.0004386,5.96159925 22.0004386,6.13914521 L22.0004386,18.6666448 C22.0004386,19.4030365 21.4034752,20 20.6670834,20 L8.61059082,20 C7.87419907,20 7.2772356,19.4030365 7.2772356,18.6666448 L7.277,16.0431999 L6.37845544,16.9426901 C5.46038233,17.9276521 4.0775313,18.3334973 2.77341071,18.0005203 C1.53687991,17.6850287 0.556614087,16.7532386 0.173697591,15.5462344 L0.118526034,15.3515344 L0.114683768,15.3418595 C-0.203220349,14.0967725 0.151904971,12.7798609 1.0297558,11.8755708 L1.15870278,11.7492457 L6.49814275,6.41026751 C6.73073443,6.16073838 6.99314968,5.94838459 7.2765541,5.775794 L7.2772356,1.78755515 C7.2772356,1.0511634 7.87419907,0.454199934 8.61059082,0.454199934 L16.3154934,0.454199934 Z M16.1182356,1.51319993 L8.61059082,1.51337803 C8.45916698,1.51337803 8.3364137,1.63613131 8.3364137,1.78755515 L8.33658619,5.33905254 C8.9083261,5.20230209 9.51421252,5.20185857 10.1039878,5.35244403 C11.3405186,5.66793565 12.3204225,6.59936377 12.7033009,7.80632986 L12.7568032,7.9939451 L12.7627147,8.01110485 C13.0805981,9.2561108 12.7251823,10.5726703 11.8468989,11.477335 L11.7178891,11.6037186 L8.33304422,14.9901541 C8.33527025,15.0098705 8.3364137,15.0299148 8.3364137,15.0502262 L8.3364137,18.6666448 C8.3364137,18.8180686 8.45916698,18.9408219 8.61059082,18.9408219 L20.6670834,18.9408219 C20.8185073,18.9408219 20.9412605,18.8180686 20.9412605,18.6666448 L20.9412356,6.33519993 L17.4520187,6.33597506 C16.715627,6.33597506 16.1186635,5.7390116 16.1186635,5.00261984 L16.1182356,1.51319993 Z M4.209,10.1959426 L1.89426954,12.5111208 C1.19271705,13.1650308 0.903693906,14.15065 1.14093829,15.0798292 C1.36416277,15.9523755 2.01659953,16.6453908 2.86345806,16.924096 L3.03535225,16.9742431 C3.90234725,17.1956102 4.81844546,16.9584708 5.47904503,16.3444403 L7.926,13.8969426 L4.209,10.1959426 Z M18.1843746,15.2665673 C18.4768585,15.2665673 18.7139636,15.5036724 18.7139636,15.7961563 C18.7139636,16.0886403 18.4768585,16.3257454 18.1843746,16.3257454 L11.6569192,16.3257454 C11.3644352,16.3257454 11.1273301,16.0886403 11.1273301,15.7961563 C11.1273301,15.5036724 11.3644352,15.2665673 11.6569192,15.2665673 L18.1843746,15.2665673 Z M18.1843746,12.4237477 C18.4768585,12.4237477 18.7139636,12.6608528 18.7139636,12.9533368 C18.7139636,13.2458207 18.4768585,13.4829258 18.1843746,13.4829258 L13.7636606,13.4829258 C13.4711766,13.4829258 13.2340716,13.2458207 13.2340716,12.9533368 C13.2340716,12.6608528 13.4711766,12.4237477 13.7636606,12.4237477 L18.1843746,12.4237477 Z M7.39758382,7.00849446 L4.958,9.4469426 L8.675,13.1479426 L11.1171989,10.706663 C11.7206497,10.0562774 11.9578419,9.14018744 11.7364602,8.27313516 C11.4980061,7.34207547 10.7718961,6.61596548 9.84204624,6.37872121 C8.974755,6.15727848 8.05836392,6.39434063 7.39758382,7.00849446 Z M17.1772356,2.26219993 L17.1778416,5.00261984 C17.1778416,5.15404369 17.3005949,5.27679697 17.4520187,5.27679697 L20.1912356,5.27619993 L17.1772356,2.26219993 Z" id="Combined-Shape" fill="#6E7695" fill-rule="nonzero"></path>
                            <rect id="Rectangle" x="0.000219316" y="0" width="22" height="20"></rect>
                        </g>
                    </g>
                </g>
            </g>
        </g>
    </g>
</svg>